<?xml version="1.0" encoding="UTF-8"?><svg id="Layer_1" xmlns="http://www.w3.org/2000/svg" viewBox="0 0 100 100"><defs><style>.cls-1{fill:#fff;fill-rule:evenodd;}</style></defs><path class="cls-1" d="m52.68,29.68h-26.08c-.19,0-.38.17-.38.38v26.08c0,.21.18.38.38.38h26.08c.21,0,.38-.17.38-.38v-26.08c0-.21-.17-.38-.38-.38Zm-16.47,18.49v-10.15l8.79,5.08-8.79,5.07Z"/><path class="cls-1" d="m89.1,32.42l-1.6-.92c-1.49-.87-3.41-.35-4.27,1.14l-1.82,3.15-1.49,2.58-4.58,7.94-3.9,6.75-10.94,18.95,5.35,3.08,1.67.97,3.92-6.78,9.98-17.29,8.84-15.3c.64-1.13.52-2.5-.23-3.47-.24-.32-.55-.59-.92-.81Z"/><polygon class="cls-1" points="59.95 75.14 59.95 81.08 63.61 78.96 65.08 78.11 64.35 77.68 59.95 75.14"/><path class="cls-1" d="m93.44,33.55c-.42-1.58-1.43-2.9-2.85-3.71l-1.6-.92c-1.95-1.13-4.27-1.05-6.1-.01v-14.79c0-.4-.16-.78-.44-1.05l-10.29-10.31c-.28-.28-.67-.44-1.05-.44H17.82c-.82,0-1.49.67-1.49,1.49v8.49H7.84c-.82,0-1.49.67-1.49,1.49v82.42c0,.82.67,1.49,1.49,1.49h63.6c.82,0,1.49-.67,1.49-1.49v-8.48h8.48c.82,0,1.49-.67,1.49-1.49v-30.83l9.94-17.21c.81-1.42,1.03-3.06.61-4.64Zm-15.63-20.93h-5.21v-5.21l5.21,5.21Zm-25.14,46.88h-26.08c-1.84,0-3.35-1.5-3.35-3.36v-26.08c0-1.86,1.5-3.36,3.35-3.36h26.08c1.86,0,3.36,1.5,3.36,3.36v26.08c0,1.86-1.5,3.36-3.36,3.36Zm1.27,13.07c0,.81-.67,1.49-1.49,1.49h-31.63c-.82,0-1.49-.68-1.49-1.49s.67-1.49,1.49-1.49h31.63c.82,0,1.49.67,1.49,1.49Zm25.97,12.17h-7v-12.08l7-12.1v24.18Zm-17.3-62.15v-5.21l5.21,5.21h-5.21Zm29.19,14.44c-.08.19-.17.39-.28.57l-10.11,17.52-9.98,17.29v2.76l-1.49,2.66-.58,1.03c-.13.22-.33.41-.55.55l-9.59,5.53c-.22.13-.47.21-.75.21H20.82c-.82,0-1.49-.67-1.49-1.49s.67-1.48,1.49-1.48h36.15v-9.6c0-.27.07-.52.19-.75l14.27-23.57.57-.95.92-1.52v-21.7c0-.39-.16-.78-.44-1.05l-10.31-10.29c-.28-.28-.65-.44-1.05-.44H19.31v-7h50.31v8.82c0,.82.67,1.49,1.49,1.49h8.82v19.47l1.49-2.58.32-.55c1.3-2.26,4.2-3.03,6.44-1.73l1.64.95c.36.22.7.47.98.75.12.12.24.25.34.39.07.08.15.17.21.27.28.41.48.85.62,1.31.05.13.07.27.11.39,0,.04.01.07.02.11.16.87.07,1.79-.28,2.66Z"/></svg>